<?xml version="1.0" encoding="utf-8"?>
<!-- Svg Vector Icons : http://www.onlinewebfonts.com/icon -->
<!DOCTYPE svg PUBLIC "-//W3C//DTD SVG 1.1//EN" "http://www.w3.org/Graphics/SVG/1.1/DTD/svg11.dtd">
<svg version="1.1" xmlns="http://www.w3.org/2000/svg" xmlns:xlink="http://www.w3.org/1999/xlink" x="0px" y="0px" viewBox="0 0 256 256" enable-background="new 0 0 256 256" xml:space="preserve">
<metadata> Svg Vector Icons : http://www.onlinewebfonts.com/icon </metadata>
<g><g><path fill="#000000" d="M76.4,91.8v94.5c0,10.6,8.6,19.1,19.1,19.1h54.6l0.2,7.4h-4.2c-10.8,0-23.1,5.8-25.3,11.2c-0.3,0.8-0.2,1.7,0.2,2.4c0.5,0.7,1.3,1.1,2.1,1.1h76c0.9,0,1.7-0.4,2.1-1.1c0.5-0.7,0.6-1.6,0.3-2.4c-2.2-5.4-14.6-11.2-25.3-11.2h-4v-7.4h54.6c10.6,0,19.1-8.6,19.1-19.1V91.8c0-10.6-8.6-19.1-19.1-19.1H95.5C84.9,72.7,76.4,81.2,76.4,91.8L76.4,91.8z M112.5,194.4c0-2.5,2-4.4,4.4-4.4c2.5,0,4.4,2,4.4,4.4c0,2.5-2,4.4-4.4,4.4C114.5,198.8,112.5,196.8,112.5,194.4z M98.5,98c0-1.8,1.4-3.2,3.2-3.2h119c1.8,0,3.2,1.4,3.2,3.2v82.1c0,1.8-1.4,3.2-3.2,3.2h-119c-1.8,0-3.2-1.4-3.2-3.2V98L98.5,98z M10,50.5v154.9c0,12.2,9.9,22.1,22.1,22.1h59c9.6,0,17.7-6.2,20.8-14.7H95.5c-19.1,0-26.5-7.4-26.5-26.5V87.4H32.1V80H69c6.8-13.2,14.7-14.7,26.5-14.7h17.7V50.6c0-12.2-9.9-22.1-22.1-22.1h-59C19.9,28.4,10,38.3,10,50.5L10,50.5z M38.4,175.9c0-4.7,3.8-8.5,8.5-8.5c4.7,0,8.5,3.8,8.5,8.5c0,4.7-3.8,8.5-8.5,8.5C42.2,184.4,38.4,180.6,38.4,175.9L38.4,175.9z M32.1,102.2h14.7v7.4H32.1V102.2L32.1,102.2z M32.1,57.9h59v7.4h-59V57.9z"/></g></g>
</svg>